<svg width="50" height="50" viewBox="0 0 50 50" fill="none" xmlns="http://www.w3.org/2000/svg">
<g clip-path="url(#clip0_3_209)">
<path d="M50 25C50 11.1929 38.8071 0 25 0C11.1929 0 0 11.1929 0 25C0 38.8071 11.1929 50 25 50C38.8071 50 50 38.8071 50 25Z" fill="black"/>
<path d="M46.9953 24.6144C46.7467 12.3234 36.5252 2.58807 24.2381 3.01343C12.2361 3.42776 2.74564 13.5004 3.0052 25.5458C3.19896 34.445 8.61685 41.9985 16.2611 45.3206C17.3469 43.9383 18.2498 41.4559 18.6996 40.0699C19.1491 38.9404 19.6244 37.8367 20.1216 36.7661C22.3553 37.5471 25.3568 36.8064 26.9945 35.0171L27.0603 34.9436H27.0529C25.0642 34.0673 22.3261 34.5219 20.5201 35.9227C21.1342 34.643 21.785 33.4072 22.4686 32.2193C24.6657 33.0993 27.6892 32.5016 29.411 30.793L29.4805 30.7232H29.4731C27.5575 29.7699 24.8558 30.0668 22.9877 31.3319C23.6677 30.1989 24.3733 29.1062 25.1118 28.0611C27.3857 28.7688 30.3834 27.8962 31.9517 26.0224L32.0139 25.9491H32.0066C30.1531 25.2303 27.7183 25.652 25.9854 26.8658C26.0477 26.785 26.1062 26.7008 26.1683 26.6201C26.6106 26.0407 27.064 25.4798 27.5246 24.9297C30.2116 24.1671 32.6061 21.4206 32.9899 18.5825L33.0046 18.4689H32.9937C30.2152 19.0262 27.6415 21.769 27.1261 24.6694C26.6838 25.1974 26.2487 25.7365 25.8246 26.2901C26.5192 24.4018 26.395 22.1063 25.3823 20.5222V20.5149L25.3164 20.592C23.7847 22.5279 23.5397 25.6888 24.728 27.7825C24.0297 28.7724 23.357 29.8028 22.7099 30.8699C23.1157 28.7248 22.432 26.2351 20.9296 24.8308H20.9222L20.882 24.9151C19.8913 27.1518 20.4214 30.2392 22.0556 31.9773C21.4121 33.103 20.7942 34.2653 20.2094 35.4717C20.5677 33.2423 19.7707 30.6646 18.1767 29.2639L18.1694 29.2566L18.1329 29.3482C17.2299 31.695 17.9245 34.874 19.6793 36.5718C19.2991 37.3967 18.9299 38.2364 18.5752 39.0981C18.4875 39.0102 18.3778 38.9404 18.2535 38.9038C17.7965 38.7682 17.1641 38.5299 16.4659 38.1082C16.0053 37.833 15.5153 37.6057 15.0071 37.4371C13.0221 36.7845 13.3145 35.8237 12.2799 33.9024C12.2141 33.7776 11.3916 32.9196 11.2161 32.7657C11.1722 32.7289 10.6495 32.4209 10.3826 31.8599C10.1377 31.3429 10.0024 30.8662 9.95121 30.3969C9.88541 29.7699 9.62585 29.3592 9.01899 29.1502C6.09801 28.1382 7.40678 24.3356 7.50913 23.8297C7.59687 23.397 7.22033 22.4583 7.08141 21.9414C7.0668 21.8789 7.05217 21.802 7.03388 21.7104C6.82185 20.6909 7.2971 19.8292 7.64806 19.4735C7.99902 19.1179 9.20908 18.5532 9.46499 18.2196C9.71358 17.8931 9.91465 17.5192 10.1706 17.2001C10.5105 16.7748 11.5524 15.9424 12.9563 15.1871C13.8044 14.7324 13.9579 13.5371 14.2797 13.1741C14.8353 12.547 15.6725 12.547 16.2977 11.9823C16.612 11.6963 17.069 11.557 17.3616 11.2563C18.8091 9.76762 20.7468 9.16627 22.6661 8.80692C23.9565 8.56491 25.397 8.93892 26.7459 9.16627C26.9434 9.19926 27.1335 9.24693 27.3162 9.30194C30.3469 9.4046 33.9989 10.039 35.315 11.3297C36.1376 12.1364 36.5397 13.0127 36.7372 13.6177C36.9565 14.2924 37.2599 14.9378 37.6293 15.5428L38.4408 16.8665C38.9526 17.7024 39.1244 18.7109 38.9014 19.6679C38.7772 20.2143 38.7113 20.7862 38.8722 21.1053C39.1244 21.6003 39.9031 22.4107 40.371 22.8727C40.5977 23.0964 40.8463 23.2944 41.1168 23.4666C41.742 23.8627 42.9228 24.6218 42.9264 24.6877C42.9264 24.7757 43.0251 25.1534 42.5024 25.6081C41.9797 26.0627 40.9926 26.7889 40.9926 26.7889C40.9926 26.7889 41.0436 27.1225 41.1827 27.3864C41.3215 27.6504 41.6616 28.0465 41.5591 28.4022C41.4568 28.7578 40.7293 29.0439 40.9377 29.4398C41.1461 29.8358 41.6579 29.9606 41.5117 30.3198C41.3617 30.6792 40.6415 31.2953 40.7147 31.5629C40.7878 31.8305 41.3691 34.2909 40.0237 34.72C39.0075 35.0427 36.2218 35.2261 34.9129 35.2957C34.3464 35.325 33.8382 35.6478 33.5677 36.1428C33.3629 36.5167 33.1655 37.0301 33.0631 37.7158C32.8109 39.4575 31.0926 43.4616 31.0926 43.4616C31.0926 43.4616 31.0414 43.5642 30.9646 43.7293C30.8149 44.0887 30.6027 44.6569 30.632 44.8843C30.6503 45.0346 30.8551 45.3243 31.1511 45.68C31.3851 45.9623 31.7727 46.0724 32.1199 45.9513C40.9413 42.9298 47.1963 34.4596 46.9953 24.6144Z" fill="#00DACC"/>
</g>
<defs>
<clipPath id="clip0_3_209">
<rect width="50" height="50" fill="white"/>
</clipPath>
</defs>
</svg>
